<svg xmlns="http://www.w3.org/2000/svg" xmlns:xlink="http://www.w3.org/1999/xlink" width="500" zoomAndPan="magnify" viewBox="0 0 375 374.999991" height="500" preserveAspectRatio="xMidYMid meet" version="1.2"><g id="bed865f8a8"><path style=" stroke:none;fill-rule:nonzero;fill:#ffffff;fill-opacity:1;" d="M 187.5 0 C 184.429688 0 181.363281 0.0742188 178.300781 0.226562 C 175.234375 0.375 172.175781 0.601562 169.121094 0.902344 C 166.066406 1.203125 163.023438 1.578125 159.988281 2.03125 C 156.953125 2.480469 153.929688 3.003906 150.921875 3.601562 C 147.910156 4.203125 144.917969 4.875 141.941406 5.617188 C 138.964844 6.363281 136.007812 7.183594 133.070312 8.074219 C 130.136719 8.964844 127.222656 9.925781 124.332031 10.960938 C 121.445312 11.996094 118.582031 13.097656 115.746094 14.273438 C 112.910156 15.445312 110.105469 16.691406 107.332031 18.003906 C 104.558594 19.3125 101.820312 20.691406 99.113281 22.140625 C 96.40625 23.585938 93.738281 25.097656 91.105469 26.675781 C 88.472656 28.253906 85.882812 29.894531 83.332031 31.597656 C 80.777344 33.304688 78.269531 35.070312 75.804688 36.898438 C 73.339844 38.726562 70.921875 40.613281 68.550781 42.558594 C 66.179688 44.507812 63.855469 46.511719 61.582031 48.570312 C 59.308594 50.632812 57.085938 52.746094 54.917969 54.917969 C 52.746094 57.085938 50.632812 59.308594 48.570312 61.582031 C 46.511719 63.855469 44.507812 66.179688 42.558594 68.550781 C 40.613281 70.921875 38.726562 73.339844 36.898438 75.804688 C 35.070312 78.269531 33.304688 80.777344 31.597656 83.332031 C 29.894531 85.882812 28.253906 88.472656 26.675781 91.105469 C 25.097656 93.738281 23.585938 96.40625 22.140625 99.113281 C 20.691406 101.820312 19.3125 104.558594 18.003906 107.332031 C 16.691406 110.105469 15.445312 112.910156 14.273438 115.746094 C 13.097656 118.582031 11.996094 121.445312 10.960938 124.332031 C 9.925781 127.222656 8.964844 130.136719 8.074219 133.070312 C 7.183594 136.007812 6.363281 138.964844 5.621094 141.941406 C 4.875 144.917969 4.203125 147.910156 3.601562 150.921875 C 3.003906 153.929688 2.480469 156.953125 2.03125 159.988281 C 1.578125 163.023438 1.203125 166.066406 0.902344 169.121094 C 0.601562 172.175781 0.375 175.234375 0.226562 178.300781 C 0.0742188 181.363281 0 184.429688 0 187.5 C 0 190.570312 0.0742188 193.636719 0.226562 196.699219 C 0.375 199.765625 0.601562 202.824219 0.902344 205.878906 C 1.203125 208.933594 1.578125 211.976562 2.03125 215.011719 C 2.480469 218.046875 3.003906 221.070312 3.601562 224.078125 C 4.203125 227.089844 4.875 230.082031 5.621094 233.058594 C 6.363281 236.035156 7.183594 238.992188 8.074219 241.929688 C 8.964844 244.863281 9.925781 247.777344 10.960938 250.667969 C 11.996094 253.554688 13.097656 256.417969 14.273438 259.253906 C 15.445312 262.089844 16.691406 264.894531 18.003906 267.667969 C 19.3125 270.441406 20.691406 273.179688 22.140625 275.886719 C 23.585938 278.59375 25.097656 281.261719 26.675781 283.894531 C 28.253906 286.527344 29.894531 289.117188 31.597656 291.667969 C 33.304688 294.222656 35.070312 296.730469 36.898438 299.195312 C 38.726562 301.660156 40.613281 304.078125 42.558594 306.449219 C 44.507812 308.820312 46.511719 311.144531 48.570312 313.417969 C 50.632812 315.691406 52.746094 317.914062 54.917969 320.082031 C 57.085938 322.253906 59.308594 324.367188 61.582031 326.429688 C 63.855469 328.488281 66.179688 330.492188 68.550781 332.441406 C 70.921875 334.386719 73.339844 336.273438 75.804688 338.101562 C 78.269531 339.929688 80.777344 341.695312 83.332031 343.402344 C 85.882812 345.105469 88.472656 346.746094 91.105469 348.324219 C 93.738281 349.902344 96.40625 351.414062 99.113281 352.859375 C 101.820312 354.308594 104.558594 355.6875 107.332031 356.996094 C 110.105469 358.308594 112.910156 359.554688 115.746094 360.726562 C 118.582031 361.902344 121.445312 363.003906 124.332031 364.039062 C 127.222656 365.074219 130.136719 366.035156 133.070312 366.925781 C 136.007812 367.816406 138.964844 368.636719 141.941406 369.378906 C 144.917969 370.125 147.910156 370.796875 150.921875 371.398438 C 153.929688 371.996094 156.953125 372.519531 159.988281 372.96875 C 163.023438 373.421875 166.066406 373.796875 169.121094 374.097656 C 172.175781 374.398438 175.234375 374.625 178.300781 374.773438 C 181.363281 374.925781 184.429688 375 187.5 375 C 190.570312 375 193.636719 374.925781 196.699219 374.773438 C 199.765625 374.625 202.824219 374.398438 205.878906 374.097656 C 208.933594 373.796875 211.976562 373.421875 215.011719 372.96875 C 218.046875 372.519531 221.070312 371.996094 224.078125 371.398438 C 227.089844 370.796875 230.082031 370.125 233.058594 369.378906 C 236.035156 368.636719 238.992188 367.816406 241.929688 366.925781 C 244.863281 366.035156 247.777344 365.074219 250.667969 364.039062 C 253.554688 363.003906 256.417969 361.902344 259.253906 360.726562 C 262.089844 359.554688 264.894531 358.308594 267.667969 356.996094 C 270.441406 355.6875 273.179688 354.308594 275.886719 352.859375 C 278.59375 351.414062 281.261719 349.902344 283.894531 348.324219 C 286.527344 346.746094 289.117188 345.105469 291.667969 343.402344 C 294.222656 341.695312 296.730469 339.929688 299.195312 338.101562 C 301.660156 336.273438 304.078125 334.386719 306.449219 332.441406 C 308.820312 330.492188 311.144531 328.488281 313.417969 326.429688 C 315.691406 324.367188 317.914062 322.253906 320.082031 320.082031 C 322.253906 317.914062 324.367188 315.691406 326.429688 313.417969 C 328.488281 311.144531 330.492188 308.820312 332.441406 306.449219 C 334.386719 304.078125 336.273438 301.660156 338.101562 299.195312 C 339.929688 296.730469 341.695312 294.222656 343.402344 291.667969 C 345.105469 289.117188 346.746094 286.527344 348.324219 283.894531 C 349.902344 281.261719 351.414062 278.59375 352.859375 275.886719 C 354.308594 273.179688 355.6875 270.441406 356.996094 267.667969 C 358.308594 264.894531 359.554688 262.089844 360.726562 259.253906 C 361.902344 256.417969 363.003906 253.554688 364.039062 250.667969 C 365.074219 247.777344 366.035156 244.863281 366.925781 241.929688 C 367.816406 238.992188 368.636719 236.035156 369.378906 233.058594 C 370.125 230.082031 370.796875 227.089844 371.398438 224.078125 C 371.996094 221.070312 372.519531 218.046875 372.96875 215.011719 C 373.421875 211.976562 373.796875 208.933594 374.097656 205.878906 C 374.398438 202.824219 374.625 199.765625 374.773438 196.699219 C 374.925781 193.636719 375 190.570312 375 187.5 C 375 184.429688 374.925781 181.363281 374.773438 178.300781 C 374.625 175.234375 374.398438 172.175781 374.097656 169.121094 C 373.796875 166.066406 373.421875 163.023438 372.96875 159.988281 C 372.519531 156.953125 371.996094 153.929688 371.398438 150.921875 C 370.796875 147.910156 370.125 144.917969 369.378906 141.941406 C 368.636719 138.964844 367.816406 136.007812 366.925781 133.070312 C 366.035156 130.136719 365.074219 127.222656 364.039062 124.332031 C 363.003906 121.445312 361.902344 118.582031 360.726562 115.746094 C 359.554688 112.910156 358.308594 110.105469 356.996094 107.332031 C 355.6875 104.558594 354.308594 101.820312 352.859375 99.113281 C 351.414062 96.40625 349.902344 93.738281 348.324219 91.105469 C 346.746094 88.472656 345.105469 85.882812 343.402344 83.332031 C 341.695312 80.777344 339.929688 78.269531 338.101562 75.804688 C 336.273438 73.339844 334.386719 70.921875 332.441406 68.550781 C 330.492188 66.179688 328.488281 63.855469 326.429688 61.582031 C 324.367188 59.308594 322.253906 57.085938 320.082031 54.917969 C 317.914062 52.746094 315.691406 50.632812 313.417969 48.570312 C 311.144531 46.511719 308.820312 44.507812 306.449219 42.558594 C 304.078125 40.613281 301.660156 38.726562 299.195312 36.898438 C 296.730469 35.070312 294.222656 33.304688 291.667969 31.597656 C 289.117188 29.894531 286.527344 28.253906 283.894531 26.675781 C 281.261719 25.097656 278.59375 23.585938 275.886719 22.140625 C 273.179688 20.691406 270.441406 19.3125 267.667969 18.003906 C 264.894531 16.691406 262.089844 15.445312 259.253906 14.273438 C 256.417969 13.097656 253.554688 11.996094 250.667969 10.960938 C 247.777344 9.925781 244.863281 8.964844 241.929688 8.074219 C 238.992188 7.183594 236.035156 6.363281 233.058594 5.617188 C 230.082031 4.875 227.089844 4.203125 224.078125 3.601562 C 221.070312 3.003906 218.046875 2.480469 215.011719 2.03125 C 211.976562 1.578125 208.933594 1.203125 205.878906 0.902344 C 202.824219 0.601562 199.765625 0.375 196.699219 0.226562 C 193.636719 0.0742188 190.570312 0 187.5 0 Z M 281.25 210.9375 L 210.78125 210.9375 L 210.78125 281.25 C 210.78125 282.019531 210.742188 282.785156 210.667969 283.546875 C 210.59375 284.3125 210.480469 285.070312 210.332031 285.824219 C 210.179688 286.574219 209.996094 287.320312 209.773438 288.054688 C 209.550781 288.789062 209.289062 289.511719 208.996094 290.21875 C 208.703125 290.929688 208.375 291.621094 208.015625 292.296875 C 207.652344 292.976562 207.257812 293.632812 206.832031 294.269531 C 206.40625 294.910156 205.949219 295.523438 205.460938 296.117188 C 204.972656 296.710938 204.460938 297.28125 203.917969 297.824219 C 203.375 298.367188 202.804688 298.878906 202.210938 299.367188 C 201.617188 299.855469 201.003906 300.3125 200.363281 300.738281 C 199.726562 301.164062 199.070312 301.558594 198.390625 301.921875 C 197.714844 302.28125 197.023438 302.609375 196.3125 302.902344 C 195.605469 303.195312 194.882812 303.457031 194.148438 303.679688 C 193.414062 303.902344 192.667969 304.085938 191.917969 304.238281 C 191.164062 304.386719 190.40625 304.5 189.640625 304.574219 C 188.878906 304.648438 188.113281 304.6875 187.34375 304.6875 C 186.574219 304.6875 185.808594 304.648438 185.046875 304.574219 C 184.28125 304.5 183.523438 304.386719 182.769531 304.238281 C 182.019531 304.085938 181.273438 303.902344 180.539062 303.679688 C 179.804688 303.457031 179.082031 303.195312 178.375 302.902344 C 177.664062 302.609375 176.972656 302.28125 176.296875 301.921875 C 175.617188 301.558594 174.960938 301.164062 174.324219 300.738281 C 173.683594 300.3125 173.070312 299.855469 172.476562 299.367188 C 171.882812 298.878906 171.3125 298.367188 170.769531 297.824219 C 170.226562 297.28125 169.714844 296.710938 169.226562 296.117188 C 168.738281 295.523438 168.28125 294.910156 167.855469 294.269531 C 167.429688 293.632812 167.035156 292.976562 166.671875 292.296875 C 166.3125 291.621094 165.984375 290.929688 165.691406 290.21875 C 165.398438 289.511719 165.136719 288.789062 164.914062 288.054688 C 164.691406 287.320312 164.507812 286.574219 164.355469 285.824219 C 164.207031 285.070312 164.09375 284.3125 164.019531 283.546875 C 163.945312 282.785156 163.90625 282.019531 163.90625 281.25 L 163.90625 210.9375 L 93.75 210.9375 C 92.980469 210.9375 92.214844 210.898438 91.453125 210.824219 C 90.6875 210.75 89.929688 210.636719 89.175781 210.488281 C 88.425781 210.335938 87.679688 210.152344 86.945312 209.929688 C 86.210938 209.707031 85.488281 209.445312 84.78125 209.152344 C 84.070312 208.859375 83.378906 208.53125 82.703125 208.171875 C 82.023438 207.808594 81.367188 207.414062 80.730469 206.988281 C 80.089844 206.5625 79.476562 206.105469 78.882812 205.617188 C 78.289062 205.128906 77.71875 204.617188 77.175781 204.074219 C 76.632812 203.53125 76.121094 202.960938 75.632812 202.367188 C 75.144531 201.773438 74.6875 201.160156 74.261719 200.519531 C 73.835938 199.882812 73.441406 199.226562 73.078125 198.546875 C 72.71875 197.871094 72.390625 197.179688 72.097656 196.46875 C 71.804688 195.761719 71.542969 195.039062 71.320312 194.304688 C 71.097656 193.570312 70.914062 192.824219 70.761719 192.074219 C 70.613281 191.320312 70.5 190.5625 70.425781 189.796875 C 70.351562 189.035156 70.3125 188.269531 70.3125 187.5 C 70.3125 186.730469 70.351562 185.964844 70.425781 185.203125 C 70.5 184.4375 70.613281 183.679688 70.761719 182.925781 C 70.914062 182.175781 71.097656 181.429688 71.320312 180.695312 C 71.542969 179.960938 71.804688 179.238281 72.097656 178.53125 C 72.390625 177.820312 72.71875 177.128906 73.078125 176.453125 C 73.441406 175.773438 73.835938 175.117188 74.261719 174.480469 C 74.6875 173.839844 75.144531 173.226562 75.632812 172.632812 C 76.121094 172.039062 76.632812 171.46875 77.175781 170.925781 C 77.71875 170.382812 78.289062 169.871094 78.882812 169.382812 C 79.476562 168.894531 80.089844 168.4375 80.730469 168.011719 C 81.367188 167.585938 82.023438 167.191406 82.703125 166.828125 C 83.378906 166.46875 84.070312 166.140625 84.78125 165.847656 C 85.488281 165.554688 86.210938 165.292969 86.945312 165.070312 C 87.679688 164.847656 88.425781 164.664062 89.175781 164.511719 C 89.929688 164.363281 90.6875 164.25 91.453125 164.175781 C 92.214844 164.101562 92.980469 164.0625 93.75 164.0625 L 163.90625 164.0625 L 163.90625 93.75 C 163.90625 92.980469 163.945312 92.214844 164.019531 91.453125 C 164.09375 90.6875 164.207031 89.929688 164.355469 89.175781 C 164.507812 88.425781 164.691406 87.679688 164.914062 86.945312 C 165.136719 86.210938 165.398438 85.488281 165.691406 84.78125 C 165.984375 84.070312 166.3125 83.378906 166.671875 82.703125 C 167.035156 82.023438 167.429688 81.367188 167.855469 80.730469 C 168.28125 80.089844 168.738281 79.476562 169.226562 78.882812 C 169.714844 78.289062 170.226562 77.71875 170.769531 77.175781 C 171.3125 76.632812 171.882812 76.121094 172.476562 75.632812 C 173.070312 75.144531 173.683594 74.6875 174.324219 74.261719 C 174.960938 73.835938 175.617188 73.441406 176.296875 73.078125 C 176.972656 72.71875 177.664062 72.390625 178.375 72.097656 C 179.082031 71.804688 179.804688 71.542969 180.539062 71.320312 C 181.273438 71.097656 182.019531 70.914062 182.769531 70.761719 C 183.523438 70.613281 184.28125 70.5 185.046875 70.425781 C 185.808594 70.351562 186.574219 70.3125 187.34375 70.3125 C 188.113281 70.3125 188.878906 70.351562 189.640625 70.425781 C 190.40625 70.5 191.164062 70.613281 191.917969 70.761719 C 192.667969 70.914062 193.414062 71.097656 194.148438 71.320312 C 194.882812 71.542969 195.605469 71.804688 196.3125 72.097656 C 197.023438 72.390625 197.714844 72.71875 198.390625 73.078125 C 199.070312 73.441406 199.726562 73.835938 200.363281 74.261719 C 201.003906 74.6875 201.617188 75.144531 202.210938 75.632812 C 202.804688 76.121094 203.375 76.632812 203.917969 77.175781 C 204.460938 77.71875 204.972656 78.289062 205.460938 78.882812 C 205.949219 79.476562 206.40625 80.089844 206.832031 80.730469 C 207.257812 81.367188 207.652344 82.023438 208.015625 82.703125 C 208.375 83.378906 208.703125 84.070312 208.996094 84.78125 C 209.289062 85.488281 209.550781 86.210938 209.773438 86.945312 C 209.996094 87.679688 210.179688 88.425781 210.332031 89.175781 C 210.480469 89.929688 210.59375 90.6875 210.667969 91.453125 C 210.742188 92.214844 210.78125 92.980469 210.78125 93.75 L 210.78125 164.0625 L 281.25 164.0625 C 282.019531 164.0625 282.785156 164.101562 283.546875 164.175781 C 284.3125 164.25 285.070312 164.363281 285.824219 164.511719 C 286.574219 164.664062 287.320312 164.847656 288.054688 165.070312 C 288.789062 165.292969 289.511719 165.554688 290.21875 165.847656 C 290.929688 166.140625 291.621094 166.46875 292.296875 166.828125 C 292.976562 167.191406 293.632812 167.585938 294.269531 168.011719 C 294.910156 168.4375 295.523438 168.894531 296.117188 169.382812 C 296.710938 169.871094 297.28125 170.382812 297.824219 170.925781 C 298.367188 171.46875 298.878906 172.039062 299.367188 172.632812 C 299.855469 173.226562 300.3125 173.839844 300.738281 174.480469 C 301.164062 175.117188 301.558594 175.773438 301.921875 176.453125 C 302.28125 177.128906 302.609375 177.820312 302.902344 178.53125 C 303.195312 179.238281 303.457031 179.960938 303.679688 180.695312 C 303.902344 181.429688 304.085938 182.175781 304.238281 182.925781 C 304.386719 183.679688 304.5 184.4375 304.574219 185.203125 C 304.648438 185.964844 304.6875 186.730469 304.6875 187.5 C 304.6875 188.269531 304.648438 189.035156 304.574219 189.796875 C 304.5 190.5625 304.386719 191.320312 304.238281 192.074219 C 304.085938 192.824219 303.902344 193.570312 303.679688 194.304688 C 303.457031 195.039062 303.195312 195.761719 302.902344 196.46875 C 302.609375 197.179688 302.28125 197.871094 301.921875 198.546875 C 301.558594 199.226562 301.164062 199.882812 300.738281 200.519531 C 300.3125 201.160156 299.855469 201.773438 299.367188 202.367188 C 298.878906 202.960938 298.367188 203.53125 297.824219 204.074219 C 297.28125 204.617188 296.710938 205.128906 296.117188 205.617188 C 295.523438 206.105469 294.910156 206.5625 294.269531 206.988281 C 293.632812 207.414062 292.976562 207.808594 292.296875 208.171875 C 291.621094 208.53125 290.929688 208.859375 290.21875 209.152344 C 289.511719 209.445312 288.789062 209.707031 288.054688 209.929688 C 287.320312 210.152344 286.574219 210.335938 285.824219 210.488281 C 285.070312 210.636719 284.3125 210.75 283.546875 210.824219 C 282.785156 210.898438 282.019531 210.9375 281.25 210.9375 Z M 281.25 210.9375 "/></g></svg>