<svg xmlns="http://www.w3.org/2000/svg" xmlns:xlink="http://www.w3.org/1999/xlink" width="500" zoomAndPan="magnify" viewBox="0 0 375 374.999991" height="500" preserveAspectRatio="xMidYMid meet" version="1.2"><g id="ee308e8576"><path style=" stroke:none;fill-rule:nonzero;fill:#000000;fill-opacity:1;" d="M 262.679688 203.074219 C 208.347656 197.484375 208.761719 190.257812 203.578125 224.035156 C 198.578125 256.792969 214.328125 275.121094 231.710938 276.910156 C 249.046875 278.691406 268.011719 264.015625 269.628906 230.78125 C 270.164062 219.042969 271.175781 203.945312 262.679688 203.074219 "/><path style=" stroke:none;fill-rule:nonzero;fill:#000000;fill-opacity:1;" d="M 287.617188 43.539062 C 277.800781 16.742188 264.046875 4.550781 250.335938 3.140625 C 219.652344 -0.015625 189.175781 50.796875 203.425781 112.792969 C 216.28125 168.441406 207.257812 175.074219 217.734375 176.152344 C 267.203125 181.238281 268.125 182.914062 270.960938 177.109375 C 295.761719 126.050781 304.386719 89.160156 287.617188 43.539062 "/><path style=" stroke:none;fill-rule:nonzero;fill:#000000;fill-opacity:1;" d="M 109.332031 299.351562 C 100.839844 300.226562 101.847656 315.324219 102.382812 327.0625 C 104.003906 360.296875 122.964844 374.96875 140.304688 373.1875 C 157.683594 371.402344 173.433594 353.070312 168.4375 320.316406 C 163.253906 286.539062 163.667969 293.765625 109.332031 299.351562 "/><path style=" stroke:none;fill-rule:nonzero;fill:#000000;fill-opacity:1;" d="M 121.679688 99.417969 C 107.964844 100.828125 94.210938 113.023438 84.394531 139.816406 C 67.628906 185.441406 76.25 222.328125 101.050781 273.390625 C 103.890625 279.191406 104.808594 277.519531 154.28125 272.433594 C 164.753906 271.355469 155.730469 264.722656 168.589844 209.074219 C 182.839844 147.078125 152.359375 96.265625 121.679688 99.417969 "/></g></svg>