<svg xmlns="http://www.w3.org/2000/svg" xmlns:xlink="http://www.w3.org/1999/xlink" width="500" zoomAndPan="magnify" viewBox="0 0 375 374.999991" height="500" preserveAspectRatio="xMidYMid meet" version="1.2"><g id="de55b798cc"><path style=" stroke:none;fill-rule:nonzero;fill:#ffffff;fill-opacity:1;" d="M 374.996094 187.496094 C 374.996094 291.050781 291.046875 375 187.492188 375 C 83.941406 375 0.00390625 291.050781 0.00390625 187.496094 C 0.00390625 83.945312 83.941406 0 187.492188 0 C 291.046875 0 374.996094 83.945312 374.996094 187.496094 Z M 143.082031 97.214844 C 136.945312 103.351562 136.945312 113.292969 143.082031 119.429688 L 211.148438 187.496094 L 143.082031 255.5625 C 140.011719 258.632812 138.480469 262.65625 138.480469 266.679688 C 138.480469 270.699219 140.011719 274.71875 143.082031 277.785156 C 149.21875 283.925781 159.164062 283.925781 165.300781 277.785156 L 244.476562 198.613281 C 250.613281 192.472656 250.613281 182.527344 244.476562 176.386719 L 165.300781 97.214844 C 159.164062 91.074219 149.21875 91.074219 143.082031 97.214844 Z M 143.082031 97.214844 "/></g></svg>