<svg xmlns="http://www.w3.org/2000/svg" xmlns:xlink="http://www.w3.org/1999/xlink" width="500" zoomAndPan="magnify" viewBox="0 0 375 374.999991" height="500" preserveAspectRatio="xMidYMid meet" version="1.2"><g id="1d0555ee85"><path style=" stroke:none;fill-rule:nonzero;fill:#ffffff;fill-opacity:1;" d="M 0.00390625 187.496094 C 0.00390625 291.050781 83.953125 375 187.507812 375 C 291.058594 375 374.996094 291.050781 374.996094 187.496094 C 374.996094 83.945312 291.058594 0 187.507812 0 C 83.953125 0 0.00390625 83.945312 0.00390625 187.496094 Z M 231.917969 97.214844 C 238.054688 103.351562 238.054688 113.292969 231.917969 119.429688 L 163.851562 187.496094 L 231.917969 255.5625 C 234.988281 258.632812 236.519531 262.65625 236.519531 266.679688 C 236.519531 270.699219 234.988281 274.71875 231.917969 277.785156 C 225.78125 283.925781 215.835938 283.925781 209.699219 277.785156 L 130.523438 198.613281 C 124.386719 192.472656 124.386719 182.527344 130.523438 176.386719 L 209.699219 97.214844 C 215.835938 91.074219 225.78125 91.074219 231.917969 97.214844 Z M 231.917969 97.214844 "/></g></svg>