<svg xmlns="http://www.w3.org/2000/svg" xmlns:xlink="http://www.w3.org/1999/xlink" width="500" zoomAndPan="magnify" viewBox="0 0 375 374.999991" height="500" preserveAspectRatio="xMidYMid meet" version="1.2"><g id="d3c00bd7ab"><path style=" stroke:none;fill-rule:nonzero;fill:#ffffff;fill-opacity:1;" d="M 187.515625 0 C 83.953125 0 0 83.953125 0 187.515625 C 0 291.078125 83.953125 375.03125 187.515625 375.03125 C 291.078125 375.03125 375.03125 291.078125 375.03125 187.515625 C 375.03125 83.953125 291.078125 0 187.515625 0 Z M 292.152344 220.71875 C 292.054688 221.800781 291.765625 223.566406 291.375 224.84375 L 290.925781 227.078125 L 288.992188 231.644531 L 286.882812 235.417969 L 286.347656 236.328125 L 285.769531 237.5625 L 284.566406 240.007812 L 281.316406 245.589844 L 280.175781 247.390625 C 279.082031 249.085938 278.476562 249.90625 277.378906 251.597656 C 266.96875 266.148438 252.890625 278.378906 235.664062 286.75 C 224.46875 292.191406 212.8125 295.574219 201.109375 297.054688 C 196.722656 297.609375 192.328125 297.898438 187.957031 297.929688 C 183.585938 297.960938 179.21875 297.726562 174.898438 297.242188 C 148.992188 294.335938 124.5 282.339844 106.289062 262.941406 L 102.980469 259.039062 L 83.152344 269.023438 C 75.703125 272.777344 70.867188 270.699219 72.355469 264.382812 L 78.96875 236.382812 L 85.582031 208.378906 C 86.703125 203.648438 90.378906 200.75 94.667969 200.675781 C 96.097656 200.652344 97.589844 200.945312 99.078125 201.578125 L 125.511719 212.9375 L 151.941406 224.296875 C 157.898438 226.859375 156.6875 231.980469 149.246094 235.730469 L 133.035156 243.890625 L 134.320312 245.167969 C 147.300781 256.949219 163.863281 264.003906 181.164062 265.339844 L 182.761719 265.40625 L 182.777344 265.300781 L 184.105469 265.414062 C 196.773438 265.839844 209.734375 263.203125 221.859375 257.132812 C 236.417969 249.847656 247.734375 238.652344 255.160156 225.464844 L 257.636719 220.539062 L 261.484375 211.363281 C 264.496094 204.1875 272.09375 200.332031 279.441406 201.78125 C 280.488281 201.992188 281.535156 202.304688 282.558594 202.738281 C 289.730469 205.75 293.589844 213.347656 292.136719 220.695312 Z M 302.652344 110.640625 L 296.039062 138.640625 L 289.425781 166.644531 C 287.9375 172.957031 281.886719 176 275.929688 173.4375 L 249.496094 162.078125 L 223.066406 150.71875 C 217.109375 148.152344 218.320312 143.035156 225.761719 139.285156 L 241.972656 131.121094 L 240.6875 129.84375 C 227.707031 118.066406 211.144531 111.011719 193.84375 109.675781 L 192.246094 109.609375 L 192.230469 109.710938 L 190.898438 109.601562 C 178.234375 109.175781 165.273438 111.8125 153.144531 117.878906 C 138.589844 125.167969 127.273438 136.363281 119.847656 149.550781 L 117.371094 154.476562 L 113.523438 163.652344 C 110.511719 170.828125 102.910156 174.683594 95.566406 173.234375 C 94.519531 173.023438 93.472656 172.710938 92.449219 172.277344 C 85.277344 169.265625 81.417969 161.664062 82.871094 154.320312 C 82.964844 153.234375 83.257812 151.472656 83.644531 150.195312 L 84.09375 147.960938 L 86.03125 143.394531 L 88.136719 139.621094 L 88.675781 138.707031 L 89.25 137.476562 L 90.453125 135.03125 L 93.707031 129.449219 L 94.847656 127.648438 C 95.941406 125.953125 96.546875 125.128906 97.644531 123.441406 C 108.054688 108.890625 122.132812 96.65625 139.359375 88.289062 C 150.554688 82.847656 162.210938 79.460938 173.914062 77.980469 C 178.300781 77.429688 182.695312 77.136719 187.066406 77.105469 C 191.4375 77.078125 195.800781 77.308594 200.121094 77.792969 C 226.03125 80.703125 250.519531 92.695312 268.734375 112.097656 L 272.042969 115.996094 L 291.871094 106.011719 C 299.320312 102.261719 304.15625 104.339844 302.667969 110.652344 Z M 302.652344 110.640625 "/></g></svg>