<svg xmlns="http://www.w3.org/2000/svg" xmlns:xlink="http://www.w3.org/1999/xlink" width="500" zoomAndPan="magnify" viewBox="0 0 375 374.999991" height="500" preserveAspectRatio="xMidYMid meet" version="1.2"><g id="7af250617a"><path style=" stroke:none;fill-rule:nonzero;fill:#ffffff;fill-opacity:1;" d="M 167.761719 98.683594 L 207.238281 98.683594 L 207.238281 108.550781 L 167.761719 108.550781 Z M 167.761719 98.683594 "/><path style=" stroke:none;fill-rule:nonzero;fill:#ffffff;fill-opacity:1;" d="M 187.5 0 C 184.429688 0 181.363281 0.0742188 178.300781 0.226562 C 175.234375 0.375 172.175781 0.601562 169.121094 0.902344 C 166.066406 1.203125 163.023438 1.578125 159.988281 2.03125 C 156.953125 2.480469 153.929688 3.003906 150.921875 3.601562 C 147.910156 4.203125 144.917969 4.875 141.941406 5.617188 C 138.964844 6.363281 136.007812 7.183594 133.070312 8.074219 C 130.136719 8.964844 127.222656 9.925781 124.332031 10.960938 C 121.445312 11.996094 118.582031 13.097656 115.746094 14.273438 C 112.910156 15.445312 110.105469 16.691406 107.332031 18.003906 C 104.558594 19.3125 101.820312 20.691406 99.113281 22.140625 C 96.40625 23.585938 93.738281 25.097656 91.105469 26.675781 C 88.472656 28.253906 85.882812 29.894531 83.332031 31.597656 C 80.777344 33.304688 78.269531 35.070312 75.804688 36.898438 C 73.339844 38.726562 70.921875 40.613281 68.550781 42.558594 C 66.179688 44.507812 63.855469 46.511719 61.582031 48.570312 C 59.308594 50.632812 57.085938 52.746094 54.917969 54.917969 C 52.746094 57.085938 50.632812 59.308594 48.570312 61.582031 C 46.511719 63.855469 44.507812 66.179688 42.558594 68.550781 C 40.613281 70.921875 38.726562 73.339844 36.898438 75.804688 C 35.070312 78.269531 33.304688 80.777344 31.597656 83.332031 C 29.894531 85.882812 28.253906 88.472656 26.675781 91.105469 C 25.097656 93.738281 23.585938 96.40625 22.140625 99.113281 C 20.691406 101.820312 19.3125 104.558594 18.003906 107.332031 C 16.691406 110.105469 15.445312 112.910156 14.273438 115.746094 C 13.097656 118.582031 11.996094 121.445312 10.960938 124.332031 C 9.925781 127.222656 8.964844 130.136719 8.074219 133.070312 C 7.183594 136.007812 6.363281 138.964844 5.617188 141.941406 C 4.875 144.917969 4.203125 147.910156 3.601562 150.921875 C 3.003906 153.929688 2.480469 156.953125 2.03125 159.988281 C 1.578125 163.023438 1.203125 166.066406 0.902344 169.121094 C 0.601562 172.175781 0.375 175.234375 0.226562 178.300781 C 0.0742188 181.363281 0 184.429688 0 187.5 C 0 190.570312 0.0742188 193.636719 0.226562 196.699219 C 0.375 199.765625 0.601562 202.824219 0.902344 205.878906 C 1.203125 208.933594 1.578125 211.976562 2.03125 215.011719 C 2.480469 218.046875 3.003906 221.070312 3.601562 224.078125 C 4.203125 227.089844 4.875 230.082031 5.617188 233.058594 C 6.363281 236.035156 7.183594 238.992188 8.074219 241.929688 C 8.964844 244.863281 9.925781 247.777344 10.960938 250.667969 C 11.996094 253.554688 13.097656 256.417969 14.273438 259.253906 C 15.445312 262.089844 16.691406 264.894531 18.003906 267.667969 C 19.3125 270.441406 20.691406 273.179688 22.140625 275.886719 C 23.585938 278.59375 25.097656 281.261719 26.675781 283.894531 C 28.253906 286.527344 29.894531 289.117188 31.597656 291.667969 C 33.304688 294.222656 35.070312 296.730469 36.898438 299.195312 C 38.726562 301.660156 40.613281 304.078125 42.558594 306.449219 C 44.507812 308.820312 46.511719 311.144531 48.570312 313.417969 C 50.632812 315.691406 52.746094 317.914062 54.917969 320.082031 C 57.085938 322.253906 59.308594 324.367188 61.582031 326.429688 C 63.855469 328.488281 66.179688 330.492188 68.550781 332.4375 C 70.921875 334.386719 73.339844 336.273438 75.804688 338.101562 C 78.269531 339.929688 80.777344 341.695312 83.332031 343.402344 C 85.882812 345.105469 88.472656 346.746094 91.105469 348.324219 C 93.738281 349.902344 96.40625 351.414062 99.113281 352.859375 C 101.820312 354.308594 104.558594 355.6875 107.332031 356.996094 C 110.105469 358.308594 112.910156 359.554688 115.746094 360.726562 C 118.582031 361.902344 121.445312 363.003906 124.332031 364.039062 C 127.222656 365.074219 130.136719 366.035156 133.070312 366.925781 C 136.007812 367.816406 138.964844 368.636719 141.941406 369.378906 C 144.917969 370.125 147.910156 370.796875 150.921875 371.398438 C 153.929688 371.996094 156.953125 372.519531 159.988281 372.96875 C 163.023438 373.421875 166.066406 373.796875 169.121094 374.097656 C 172.175781 374.398438 175.234375 374.625 178.300781 374.773438 C 181.363281 374.925781 184.429688 375 187.5 375 C 190.570312 375 193.636719 374.925781 196.699219 374.773438 C 199.765625 374.625 202.824219 374.398438 205.878906 374.097656 C 208.933594 373.796875 211.976562 373.421875 215.011719 372.96875 C 218.046875 372.519531 221.070312 371.996094 224.078125 371.398438 C 227.089844 370.796875 230.082031 370.125 233.058594 369.378906 C 236.035156 368.636719 238.992188 367.816406 241.929688 366.925781 C 244.863281 366.035156 247.777344 365.074219 250.667969 364.039062 C 253.554688 363.003906 256.417969 361.902344 259.253906 360.726562 C 262.089844 359.554688 264.894531 358.308594 267.667969 356.996094 C 270.441406 355.6875 273.179688 354.308594 275.886719 352.859375 C 278.59375 351.414062 281.261719 349.902344 283.894531 348.324219 C 286.527344 346.746094 289.117188 345.105469 291.667969 343.402344 C 294.222656 341.695312 296.730469 339.929688 299.195312 338.101562 C 301.660156 336.273438 304.078125 334.386719 306.449219 332.4375 C 308.820312 330.492188 311.144531 328.488281 313.417969 326.429688 C 315.691406 324.367188 317.914062 322.253906 320.082031 320.082031 C 322.253906 317.914062 324.367188 315.691406 326.429688 313.417969 C 328.488281 311.144531 330.492188 308.820312 332.4375 306.449219 C 334.386719 304.078125 336.273438 301.660156 338.101562 299.195312 C 339.929688 296.730469 341.695312 294.222656 343.402344 291.667969 C 345.105469 289.117188 346.746094 286.527344 348.324219 283.894531 C 349.902344 281.261719 351.414062 278.59375 352.859375 275.886719 C 354.308594 273.179688 355.6875 270.441406 356.996094 267.667969 C 358.308594 264.894531 359.554688 262.089844 360.726562 259.253906 C 361.902344 256.417969 363.003906 253.554688 364.039062 250.667969 C 365.074219 247.777344 366.035156 244.863281 366.925781 241.929688 C 367.816406 238.992188 368.636719 236.035156 369.378906 233.058594 C 370.125 230.082031 370.796875 227.089844 371.398438 224.078125 C 371.996094 221.070312 372.519531 218.046875 372.96875 215.011719 C 373.421875 211.976562 373.796875 208.933594 374.097656 205.878906 C 374.398438 202.824219 374.625 199.765625 374.773438 196.699219 C 374.925781 193.636719 375 190.570312 375 187.5 C 374.996094 184.433594 374.917969 181.367188 374.765625 178.304688 C 374.609375 175.238281 374.382812 172.179688 374.078125 169.128906 C 373.773438 166.074219 373.398438 163.03125 372.945312 160 C 372.492188 156.964844 371.964844 153.941406 371.363281 150.933594 C 370.761719 147.925781 370.085938 144.933594 369.339844 141.960938 C 368.59375 138.984375 367.773438 136.03125 366.878906 133.09375 C 365.988281 130.160156 365.023438 127.25 363.988281 124.359375 C 362.953125 121.472656 361.847656 118.613281 360.671875 115.777344 C 359.496094 112.945312 358.253906 110.140625 356.9375 107.371094 C 355.625 104.597656 354.246094 101.859375 352.800781 99.152344 C 351.351562 96.449219 349.839844 93.78125 348.261719 91.152344 C 346.683594 88.519531 345.042969 85.929688 343.335938 83.378906 C 341.632812 80.828125 339.867188 78.324219 338.039062 75.859375 C 336.210938 73.394531 334.324219 70.976562 332.375 68.605469 C 330.429688 66.234375 328.425781 63.914062 326.367188 61.640625 C 324.304688 59.367188 322.191406 57.148438 320.023438 54.976562 C 317.851562 52.808594 315.632812 50.695312 313.359375 48.632812 C 311.085938 46.574219 308.765625 44.570312 306.394531 42.625 C 304.023438 40.675781 301.605469 38.789062 299.140625 36.960938 C 296.675781 35.132812 294.171875 33.367188 291.621094 31.664062 C 289.070312 29.957031 286.480469 28.316406 283.847656 26.738281 C 281.21875 25.160156 278.550781 23.648438 275.847656 22.199219 C 273.140625 20.753906 270.402344 19.375 267.628906 18.0625 C 264.859375 16.746094 262.054688 15.503906 259.222656 14.328125 C 256.386719 13.152344 253.527344 12.046875 250.640625 11.011719 C 247.75 9.976562 244.839844 9.011719 241.90625 8.121094 C 238.96875 7.226562 236.015625 6.40625 233.039062 5.660156 C 230.066406 4.914062 227.074219 4.238281 224.066406 3.636719 C 221.058594 3.035156 218.035156 2.507812 215 2.054688 C 211.96875 1.601562 208.925781 1.226562 205.871094 0.921875 C 202.820312 0.617188 199.761719 0.390625 196.695312 0.234375 C 193.632812 0.0820312 190.566406 0.00390625 187.5 0 Z M 266.449219 258.464844 C 266.414062 259.726562 266.316406 260.984375 266.15625 262.238281 C 266 263.492188 265.78125 264.734375 265.5 265.964844 C 265.222656 267.199219 264.882812 268.414062 264.484375 269.613281 C 264.082031 270.8125 263.625 271.988281 263.113281 273.140625 C 262.597656 274.292969 262.027344 275.421875 261.402344 276.519531 C 260.777344 277.617188 260.101562 278.683594 259.371094 279.714844 C 258.644531 280.746094 257.867188 281.738281 257.039062 282.695312 C 256.214844 283.648438 255.34375 284.5625 254.425781 285.433594 C 253.511719 286.300781 252.554688 287.125 251.558594 287.902344 C 250.558594 288.679688 249.527344 289.402344 248.460938 290.078125 C 247.390625 290.753906 246.292969 291.375 245.164062 291.941406 C 244.035156 292.511719 242.882812 293.023438 241.703125 293.476562 C 240.523438 293.929688 239.328125 294.328125 238.109375 294.664062 C 236.890625 295 235.660156 295.277344 234.417969 295.492188 C 233.171875 295.710938 231.917969 295.863281 230.660156 295.957031 C 229.398438 296.050781 228.136719 296.082031 226.875 296.050781 L 148.125 296.050781 C 146.863281 296.082031 145.601562 296.050781 144.339844 295.957031 C 143.082031 295.863281 141.828125 295.710938 140.582031 295.492188 C 139.339844 295.277344 138.109375 295 136.890625 294.664062 C 135.671875 294.328125 134.476562 293.929688 133.296875 293.476562 C 132.117188 293.023438 130.964844 292.511719 129.835938 291.941406 C 128.707031 291.375 127.609375 290.753906 126.539062 290.078125 C 125.472656 289.402344 124.441406 288.679688 123.441406 287.902344 C 122.445312 287.125 121.488281 286.300781 120.574219 285.433594 C 119.65625 284.5625 118.785156 283.648438 117.960938 282.695312 C 117.132812 281.738281 116.355469 280.746094 115.628906 279.714844 C 114.898438 278.683594 114.222656 277.617188 113.597656 276.519531 C 112.972656 275.421875 112.402344 274.292969 111.886719 273.140625 C 111.375 271.988281 110.917969 270.8125 110.515625 269.613281 C 110.117188 268.414062 109.777344 267.199219 109.5 265.964844 C 109.21875 264.734375 109 263.492188 108.84375 262.238281 C 108.683594 260.984375 108.585938 259.726562 108.550781 258.464844 L 108.550781 148.027344 C 108.550781 147.378906 108.617188 146.738281 108.742188 146.101562 C 108.867188 145.464844 109.054688 144.847656 109.304688 144.25 C 109.550781 143.652344 109.855469 143.082031 110.214844 142.542969 C 110.574219 142.003906 110.984375 141.507812 111.441406 141.046875 C 111.902344 140.589844 112.398438 140.179688 112.9375 139.820312 C 113.476562 139.460938 114.046875 139.15625 114.644531 138.910156 C 115.242188 138.660156 115.859375 138.472656 116.496094 138.347656 C 117.132812 138.222656 117.773438 138.15625 118.421875 138.15625 C 119.070312 138.15625 119.710938 138.222656 120.347656 138.347656 C 120.980469 138.472656 121.597656 138.660156 122.199219 138.910156 C 122.796875 139.15625 123.363281 139.460938 123.902344 139.820312 C 124.441406 140.179688 124.941406 140.589844 125.398438 141.046875 C 125.855469 141.507812 126.265625 142.003906 126.625 142.542969 C 126.984375 143.082031 127.289062 143.652344 127.539062 144.25 C 127.785156 144.847656 127.972656 145.464844 128.101562 146.101562 C 128.226562 146.738281 128.289062 147.378906 128.289062 148.027344 L 128.289062 258.464844 C 128.324219 259.082031 128.390625 259.691406 128.484375 260.304688 C 128.578125 260.914062 128.703125 261.515625 128.859375 262.113281 C 129.011719 262.710938 129.195312 263.300781 129.40625 263.882812 C 129.617188 264.460938 129.855469 265.03125 130.125 265.585938 C 130.390625 266.144531 130.683594 266.683594 131.003906 267.214844 C 131.324219 267.742188 131.667969 268.253906 132.039062 268.746094 C 132.410156 269.242188 132.800781 269.714844 133.21875 270.171875 C 133.636719 270.625 134.074219 271.0625 134.53125 271.472656 C 134.988281 271.886719 135.46875 272.277344 135.964844 272.644531 C 136.460938 273.007812 136.976562 273.351562 137.503906 273.667969 C 138.035156 273.984375 138.582031 274.273438 139.140625 274.535156 C 139.699219 274.796875 140.269531 275.03125 140.847656 275.238281 C 141.429688 275.445312 142.019531 275.625 142.621094 275.773438 C 143.21875 275.925781 143.824219 276.042969 144.433594 276.132812 C 145.046875 276.222656 145.660156 276.285156 146.273438 276.316406 C 146.890625 276.34375 147.507812 276.347656 148.125 276.316406 L 226.875 276.316406 C 227.492188 276.347656 228.109375 276.34375 228.726562 276.316406 C 229.339844 276.285156 229.953125 276.222656 230.566406 276.132812 C 231.175781 276.042969 231.78125 275.925781 232.378906 275.773438 C 232.980469 275.625 233.570312 275.445312 234.152344 275.238281 C 234.730469 275.03125 235.300781 274.796875 235.859375 274.535156 C 236.417969 274.273438 236.964844 273.984375 237.496094 273.667969 C 238.023438 273.351562 238.539062 273.007812 239.035156 272.644531 C 239.53125 272.277344 240.011719 271.886719 240.46875 271.472656 C 240.925781 271.0625 241.363281 270.625 241.78125 270.171875 C 242.199219 269.714844 242.589844 269.242188 242.960938 268.746094 C 243.332031 268.253906 243.675781 267.742188 243.996094 267.214844 C 244.316406 266.683594 244.609375 266.144531 244.875 265.585938 C 245.144531 265.03125 245.382812 264.460938 245.59375 263.882812 C 245.804688 263.300781 245.988281 262.710938 246.140625 262.113281 C 246.296875 261.515625 246.421875 260.914062 246.515625 260.304688 C 246.609375 259.691406 246.675781 259.082031 246.710938 258.464844 L 246.710938 148.027344 C 246.710938 147.378906 246.773438 146.738281 246.898438 146.101562 C 247.027344 145.464844 247.214844 144.847656 247.460938 144.25 C 247.710938 143.652344 248.011719 143.082031 248.375 142.542969 C 248.734375 142.003906 249.144531 141.507812 249.601562 141.046875 C 250.058594 140.589844 250.558594 140.179688 251.097656 139.820312 C 251.636719 139.460938 252.203125 139.15625 252.800781 138.910156 C 253.402344 138.660156 254.019531 138.472656 254.652344 138.347656 C 255.289062 138.222656 255.929688 138.15625 256.578125 138.15625 C 257.226562 138.15625 257.867188 138.222656 258.503906 138.347656 C 259.140625 138.472656 259.757812 138.660156 260.355469 138.910156 C 260.953125 139.15625 261.523438 139.460938 262.0625 139.820312 C 262.601562 140.179688 263.097656 140.589844 263.558594 141.046875 C 264.015625 141.507812 264.425781 142.003906 264.785156 142.542969 C 265.144531 143.082031 265.449219 143.652344 265.695312 144.25 C 265.945312 144.847656 266.132812 145.464844 266.257812 146.101562 C 266.382812 146.738281 266.449219 147.378906 266.449219 148.027344 Z M 157.894531 236.84375 L 157.894531 167.761719 C 157.894531 167.113281 157.957031 166.472656 158.085938 165.839844 C 158.210938 165.203125 158.398438 164.585938 158.644531 163.988281 C 158.894531 163.386719 159.199219 162.820312 159.558594 162.28125 C 159.917969 161.742188 160.328125 161.242188 160.785156 160.785156 C 161.242188 160.328125 161.742188 159.917969 162.28125 159.558594 C 162.820312 159.199219 163.386719 158.894531 163.988281 158.644531 C 164.585938 158.398438 165.203125 158.210938 165.839844 158.085938 C 166.472656 157.957031 167.113281 157.894531 167.761719 157.894531 C 168.410156 157.894531 169.054688 157.957031 169.6875 158.085938 C 170.324219 158.210938 170.941406 158.398438 171.539062 158.644531 C 172.136719 158.894531 172.707031 159.199219 173.246094 159.558594 C 173.785156 159.917969 174.28125 160.328125 174.742188 160.785156 C 175.199219 161.242188 175.609375 161.742188 175.96875 162.28125 C 176.328125 162.820312 176.632812 163.386719 176.878906 163.988281 C 177.128906 164.585938 177.316406 165.203125 177.441406 165.839844 C 177.566406 166.472656 177.632812 167.113281 177.632812 167.761719 L 177.632812 236.84375 C 177.632812 237.488281 177.566406 238.132812 177.441406 238.765625 C 177.316406 239.402344 177.128906 240.019531 176.878906 240.617188 C 176.632812 241.21875 176.328125 241.785156 175.96875 242.324219 C 175.609375 242.863281 175.199219 243.363281 174.742188 243.820312 C 174.28125 244.277344 173.785156 244.6875 173.246094 245.046875 C 172.707031 245.40625 172.136719 245.710938 171.539062 245.960938 C 170.941406 246.207031 170.324219 246.394531 169.6875 246.519531 C 169.054688 246.648438 168.410156 246.710938 167.761719 246.710938 C 167.113281 246.710938 166.472656 246.648438 165.839844 246.519531 C 165.203125 246.394531 164.585938 246.207031 163.988281 245.960938 C 163.386719 245.710938 162.820312 245.40625 162.28125 245.046875 C 161.742188 244.6875 161.242188 244.277344 160.785156 243.820312 C 160.328125 243.363281 159.917969 242.863281 159.558594 242.324219 C 159.199219 241.785156 158.894531 241.21875 158.644531 240.617188 C 158.398438 240.019531 158.210938 239.402344 158.085938 238.765625 C 157.957031 238.132812 157.894531 237.488281 157.894531 236.84375 Z M 197.367188 236.84375 L 197.367188 167.761719 C 197.367188 167.113281 197.429688 166.472656 197.558594 165.839844 C 197.683594 165.203125 197.871094 164.585938 198.121094 163.988281 C 198.367188 163.386719 198.671875 162.820312 199.03125 162.28125 C 199.390625 161.742188 199.800781 161.242188 200.257812 160.785156 C 200.71875 160.328125 201.214844 159.917969 201.753906 159.558594 C 202.292969 159.199219 202.863281 158.894531 203.460938 158.644531 C 204.058594 158.398438 204.675781 158.210938 205.3125 158.085938 C 205.945312 157.957031 206.589844 157.894531 207.238281 157.894531 C 207.886719 157.894531 208.527344 157.957031 209.160156 158.085938 C 209.796875 158.210938 210.414062 158.398438 211.011719 158.644531 C 211.613281 158.894531 212.179688 159.199219 212.71875 159.558594 C 213.257812 159.917969 213.757812 160.328125 214.214844 160.785156 C 214.671875 161.242188 215.082031 161.742188 215.441406 162.28125 C 215.800781 162.820312 216.105469 163.386719 216.355469 163.988281 C 216.601562 164.585938 216.789062 165.203125 216.914062 165.839844 C 217.042969 166.472656 217.105469 167.113281 217.105469 167.761719 L 217.105469 236.84375 C 217.105469 237.488281 217.042969 238.132812 216.914062 238.765625 C 216.789062 239.402344 216.601562 240.019531 216.355469 240.617188 C 216.105469 241.21875 215.800781 241.785156 215.441406 242.324219 C 215.082031 242.863281 214.671875 243.363281 214.214844 243.820312 C 213.757812 244.277344 213.257812 244.6875 212.71875 245.046875 C 212.179688 245.40625 211.613281 245.710938 211.011719 245.960938 C 210.414062 246.207031 209.796875 246.394531 209.160156 246.519531 C 208.527344 246.648438 207.886719 246.710938 207.238281 246.710938 C 206.589844 246.710938 205.945312 246.648438 205.3125 246.519531 C 204.675781 246.394531 204.058594 246.207031 203.460938 245.960938 C 202.863281 245.710938 202.292969 245.40625 201.753906 245.046875 C 201.214844 244.6875 200.71875 244.277344 200.257812 243.820312 C 199.800781 243.363281 199.390625 242.863281 199.03125 242.324219 C 198.671875 241.785156 198.367188 241.21875 198.121094 240.617188 C 197.871094 240.019531 197.683594 239.402344 197.558594 238.765625 C 197.429688 238.132812 197.367188 237.488281 197.367188 236.84375 Z M 266.449219 128.289062 L 108.550781 128.289062 C 107.90625 128.289062 107.261719 128.226562 106.628906 128.101562 C 105.992188 127.972656 105.375 127.785156 104.777344 127.539062 C 104.175781 127.289062 103.609375 126.984375 103.070312 126.625 C 102.53125 126.265625 102.03125 125.855469 101.574219 125.398438 C 101.117188 124.941406 100.707031 124.441406 100.347656 123.902344 C 99.988281 123.363281 99.683594 122.796875 99.433594 122.199219 C 99.1875 121.597656 99 120.980469 98.875 120.347656 C 98.746094 119.710938 98.683594 119.070312 98.683594 118.421875 C 98.683594 117.773438 98.746094 117.132812 98.875 116.496094 C 99 115.859375 99.1875 115.242188 99.433594 114.644531 C 99.683594 114.046875 99.988281 113.476562 100.347656 112.9375 C 100.707031 112.398438 101.117188 111.902344 101.574219 111.441406 C 102.03125 110.984375 102.53125 110.574219 103.070312 110.214844 C 103.609375 109.855469 104.175781 109.550781 104.777344 109.304688 C 105.375 109.054688 105.992188 108.867188 106.628906 108.742188 C 107.261719 108.617188 107.90625 108.550781 108.550781 108.550781 L 148.027344 108.550781 L 148.027344 88.816406 C 148.027344 88.167969 148.089844 87.527344 148.214844 86.890625 C 148.34375 86.253906 148.53125 85.636719 148.777344 85.039062 C 149.027344 84.441406 149.328125 83.871094 149.6875 83.332031 C 150.050781 82.792969 150.457031 82.296875 150.917969 81.835938 C 151.375 81.378906 151.875 80.96875 152.414062 80.609375 C 152.949219 80.25 153.519531 79.945312 154.117188 79.699219 C 154.71875 79.449219 155.332031 79.261719 155.96875 79.136719 C 156.605469 79.011719 157.246094 78.949219 157.894531 78.949219 L 217.105469 78.949219 C 217.753906 78.949219 218.394531 79.011719 219.03125 79.136719 C 219.664062 79.261719 220.28125 79.449219 220.882812 79.699219 C 221.480469 79.945312 222.050781 80.25 222.585938 80.609375 C 223.125 80.96875 223.625 81.378906 224.082031 81.835938 C 224.542969 82.296875 224.949219 82.792969 225.308594 83.332031 C 225.671875 83.871094 225.972656 84.441406 226.222656 85.039062 C 226.46875 85.636719 226.65625 86.253906 226.785156 86.890625 C 226.910156 87.527344 226.972656 88.167969 226.972656 88.816406 L 226.972656 108.550781 L 266.449219 108.550781 C 267.09375 108.550781 267.738281 108.617188 268.371094 108.742188 C 269.007812 108.867188 269.625 109.054688 270.222656 109.304688 C 270.824219 109.550781 271.390625 109.855469 271.929688 110.214844 C 272.46875 110.574219 272.96875 110.984375 273.425781 111.441406 C 273.882812 111.902344 274.292969 112.398438 274.652344 112.9375 C 275.011719 113.476562 275.316406 114.046875 275.566406 114.644531 C 275.8125 115.242188 276 115.859375 276.125 116.496094 C 276.253906 117.132812 276.316406 117.773438 276.316406 118.421875 C 276.316406 119.070312 276.253906 119.710938 276.125 120.347656 C 276 120.980469 275.8125 121.597656 275.566406 122.199219 C 275.316406 122.796875 275.011719 123.363281 274.652344 123.902344 C 274.292969 124.441406 273.882812 124.941406 273.425781 125.398438 C 272.96875 125.855469 272.46875 126.265625 271.929688 126.625 C 271.390625 126.984375 270.824219 127.289062 270.222656 127.539062 C 269.625 127.785156 269.007812 127.972656 268.371094 128.101562 C 267.738281 128.226562 267.09375 128.289062 266.449219 128.289062 Z M 266.449219 128.289062 "/></g></svg>